<mxfile host="app.diagrams.net" agent="Mozilla/5.0 (Windows NT 10.0; Win64; x64) AppleWebKit/537.36 (KHTML, like Gecko) Chrome/137.0.0.0 Safari/537.36" version="27.1.6">
  <diagram name="PÃ¡gina-1" id="a8hVuPVXtJO2H_gj8rDV">
    <mxGraphModel dx="2133" dy="1842" grid="1" gridSize="10" guides="1" tooltips="1" connect="1" arrows="1" fold="1" page="1" pageScale="1" pageWidth="827" pageHeight="1169" math="0" shadow="0">
      <root>
        <mxCell id="0" />
        <mxCell id="1" parent="0" />
        <mxCell id="e8TIdVvF_xzTd81R42CT-82" value="" style="rounded=0;orthogonalLoop=1;jettySize=auto;html=1;startArrow=none;endArrow=block;segment=10;sourcePerimeterSpacing=0;targetPerimeterSpacing=0;shape=flexArrow;fillColor=#dae8fc;strokeColor=#6c8ebf;" edge="1" parent="1" source="0aKGZR3EP1oLVy50rAR6-6" target="e8TIdVvF_xzTd81R42CT-81">
          <mxGeometry relative="1" as="geometry" />
        </mxCell>
        <mxCell id="e8TIdVvF_xzTd81R42CT-90" value="" style="rounded=0;orthogonalLoop=1;jettySize=auto;html=1;startArrow=none;endArrow=block;segment=10;sourcePerimeterSpacing=0;targetPerimeterSpacing=0;shape=flexArrow;fillColor=#dae8fc;strokeColor=#6c8ebf;" edge="1" parent="1" source="0aKGZR3EP1oLVy50rAR6-6" target="e8TIdVvF_xzTd81R42CT-89">
          <mxGeometry relative="1" as="geometry" />
        </mxCell>
        <mxCell id="0aKGZR3EP1oLVy50rAR6-6" value="Consensus" style="ellipse;whiteSpace=wrap;html=1;align=center;treeFolding=1;treeMoving=1;newEdgeStyle={&quot;edgeStyle&quot;:&quot;entityRelationEdgeStyle&quot;,&quot;startArrow&quot;:&quot;none&quot;,&quot;endArrow&quot;:&quot;none&quot;,&quot;segment&quot;:10,&quot;curved&quot;:1,&quot;sourcePerimeterSpacing&quot;:0,&quot;targetPerimeterSpacing&quot;:0};fillColor=#dae8fc;strokeColor=#6c8ebf;" parent="1" vertex="1">
          <mxGeometry x="420" y="35" width="100" height="40" as="geometry" />
        </mxCell>
        <mxCell id="0aKGZR3EP1oLVy50rAR6-16" value="" style="edgeStyle=entityRelationEdgeStyle;rounded=0;orthogonalLoop=1;jettySize=auto;html=1;startArrow=none;endArrow=none;segment=10;curved=1;sourcePerimeterSpacing=0;targetPerimeterSpacing=0;" parent="1" source="0aKGZR3EP1oLVy50rAR6-6" target="0aKGZR3EP1oLVy50rAR6-15" edge="1">
          <mxGeometry relative="1" as="geometry">
            <mxPoint x="270" y="180" as="sourcePoint" />
          </mxGeometry>
        </mxCell>
        <mxCell id="e8TIdVvF_xzTd81R42CT-59" value="" style="rounded=0;orthogonalLoop=1;jettySize=auto;html=1;startArrow=none;endArrow=classic;segment=10;sourcePerimeterSpacing=0;targetPerimeterSpacing=0;endFill=1;" edge="1" parent="1" source="e8TIdVvF_xzTd81R42CT-93" target="e8TIdVvF_xzTd81R42CT-58">
          <mxGeometry relative="1" as="geometry" />
        </mxCell>
        <mxCell id="e8TIdVvF_xzTd81R42CT-83" value="" style="rounded=0;orthogonalLoop=1;jettySize=auto;html=1;startArrow=block;endArrow=none;segment=10;sourcePerimeterSpacing=0;targetPerimeterSpacing=0;shape=flexArrow;startFill=0;fillColor=#dae8fc;strokeColor=#6c8ebf;" edge="1" parent="1" source="0aKGZR3EP1oLVy50rAR6-15" target="0aKGZR3EP1oLVy50rAR6-6">
          <mxGeometry relative="1" as="geometry" />
        </mxCell>
        <mxCell id="e8TIdVvF_xzTd81R42CT-94" value="" style="rounded=0;orthogonalLoop=1;jettySize=auto;html=1;startArrow=none;endArrow=none;segment=10;sourcePerimeterSpacing=0;targetPerimeterSpacing=0;" edge="1" parent="1" source="0aKGZR3EP1oLVy50rAR6-15" target="e8TIdVvF_xzTd81R42CT-93">
          <mxGeometry relative="1" as="geometry" />
        </mxCell>
        <mxCell id="0aKGZR3EP1oLVy50rAR6-15" value="Beacon chain" style="whiteSpace=wrap;html=1;rounded=1;arcSize=50;align=center;verticalAlign=middle;strokeWidth=1;autosize=1;spacing=4;treeFolding=1;treeMoving=1;newEdgeStyle={&quot;edgeStyle&quot;:&quot;entityRelationEdgeStyle&quot;,&quot;startArrow&quot;:&quot;none&quot;,&quot;endArrow&quot;:&quot;none&quot;,&quot;segment&quot;:10,&quot;curved&quot;:1,&quot;sourcePerimeterSpacing&quot;:0,&quot;targetPerimeterSpacing&quot;:0};fillColor=#dae8fc;strokeColor=#6c8ebf;" parent="1" vertex="1">
          <mxGeometry x="160" y="40" width="120" height="30" as="geometry" />
        </mxCell>
        <mxCell id="0aKGZR3EP1oLVy50rAR6-19" value="Committees" style="whiteSpace=wrap;html=1;rounded=1;arcSize=50;align=center;verticalAlign=middle;strokeWidth=1;autosize=1;spacing=4;treeFolding=1;treeMoving=1;newEdgeStyle={&quot;edgeStyle&quot;:&quot;entityRelationEdgeStyle&quot;,&quot;startArrow&quot;:&quot;none&quot;,&quot;endArrow&quot;:&quot;none&quot;,&quot;segment&quot;:10,&quot;curved&quot;:1,&quot;sourcePerimeterSpacing&quot;:0,&quot;targetPerimeterSpacing&quot;:0};" parent="1" vertex="1" visible="0">
          <mxGeometry x="15" y="275" width="110" height="30" as="geometry" />
        </mxCell>
        <mxCell id="e8TIdVvF_xzTd81R42CT-1" value="Proposer" style="whiteSpace=wrap;html=1;rounded=1;arcSize=50;align=center;verticalAlign=middle;strokeWidth=1;autosize=1;spacing=4;treeFolding=1;treeMoving=1;newEdgeStyle={&quot;edgeStyle&quot;:&quot;entityRelationEdgeStyle&quot;,&quot;startArrow&quot;:&quot;none&quot;,&quot;endArrow&quot;:&quot;none&quot;,&quot;segment&quot;:10,&quot;curved&quot;:1,&quot;sourcePerimeterSpacing&quot;:0,&quot;targetPerimeterSpacing&quot;:0};" vertex="1" visible="0" parent="1">
          <mxGeometry x="20" y="55" width="90" height="30" as="geometry" />
        </mxCell>
        <mxCell id="e8TIdVvF_xzTd81R42CT-10" value="" style="rounded=0;orthogonalLoop=1;jettySize=auto;html=1;startArrow=none;endArrow=classic;segment=10;sourcePerimeterSpacing=0;targetPerimeterSpacing=0;endFill=1;" edge="1" parent="1" source="0aKGZR3EP1oLVy50rAR6-15" target="e8TIdVvF_xzTd81R42CT-9">
          <mxGeometry relative="1" as="geometry" />
        </mxCell>
        <mxCell id="e8TIdVvF_xzTd81R42CT-92" style="rounded=0;orthogonalLoop=1;jettySize=auto;html=1;startArrow=none;endArrow=classic;segment=10;sourcePerimeterSpacing=0;targetPerimeterSpacing=0;entryX=1;entryY=0.75;entryDx=0;entryDy=0;endFill=1;" edge="1" parent="1" source="0aKGZR3EP1oLVy50rAR6-15" target="e8TIdVvF_xzTd81R42CT-91">
          <mxGeometry relative="1" as="geometry">
            <mxPoint x="230" y="80" as="sourcePoint" />
          </mxGeometry>
        </mxCell>
        <mxCell id="e8TIdVvF_xzTd81R42CT-9" value="proposed blocks" style="whiteSpace=wrap;html=1;rounded=1;arcSize=50;align=center;verticalAlign=middle;strokeWidth=1;autosize=1;spacing=4;treeFolding=1;treeMoving=1;newEdgeStyle={&quot;edgeStyle&quot;:&quot;entityRelationEdgeStyle&quot;,&quot;startArrow&quot;:&quot;none&quot;,&quot;endArrow&quot;:&quot;none&quot;,&quot;segment&quot;:10,&quot;curved&quot;:1,&quot;sourcePerimeterSpacing&quot;:0,&quot;targetPerimeterSpacing&quot;:0};" vertex="1" parent="1">
          <mxGeometry x="-270" y="30" width="130" height="30" as="geometry" />
        </mxCell>
        <mxCell id="e8TIdVvF_xzTd81R42CT-22" value="" style="rounded=0;orthogonalLoop=1;jettySize=auto;html=1;startArrow=none;endArrow=none;segment=10;sourcePerimeterSpacing=0;targetPerimeterSpacing=0;exitX=0.5;exitY=1;exitDx=0;exitDy=0;" edge="1" parent="1" source="e8TIdVvF_xzTd81R42CT-81" target="e8TIdVvF_xzTd81R42CT-21">
          <mxGeometry relative="1" as="geometry">
            <mxPoint x="700" y="35" as="sourcePoint" />
          </mxGeometry>
        </mxCell>
        <mxCell id="e8TIdVvF_xzTd81R42CT-24" value="" style="rounded=0;orthogonalLoop=1;jettySize=auto;html=1;startArrow=none;endArrow=none;segment=10;sourcePerimeterSpacing=0;targetPerimeterSpacing=0;" edge="1" parent="1" source="e8TIdVvF_xzTd81R42CT-21" target="e8TIdVvF_xzTd81R42CT-23" visible="0">
          <mxGeometry relative="1" as="geometry" />
        </mxCell>
        <mxCell id="e8TIdVvF_xzTd81R42CT-26" value="" style="rounded=0;orthogonalLoop=1;jettySize=auto;html=1;startArrow=none;endArrow=none;segment=10;sourcePerimeterSpacing=0;targetPerimeterSpacing=0;" edge="1" parent="1" source="e8TIdVvF_xzTd81R42CT-21" target="e8TIdVvF_xzTd81R42CT-25" visible="0">
          <mxGeometry relative="1" as="geometry" />
        </mxCell>
        <mxCell id="e8TIdVvF_xzTd81R42CT-21" value="Gasper" style="whiteSpace=wrap;html=1;rounded=1;arcSize=50;align=center;verticalAlign=middle;strokeWidth=1;autosize=1;spacing=4;treeFolding=1;treeMoving=1;newEdgeStyle={&quot;edgeStyle&quot;:&quot;entityRelationEdgeStyle&quot;,&quot;startArrow&quot;:&quot;none&quot;,&quot;endArrow&quot;:&quot;none&quot;,&quot;segment&quot;:10,&quot;curved&quot;:1,&quot;sourcePerimeterSpacing&quot;:0,&quot;targetPerimeterSpacing&quot;:0};" vertex="1" collapsed="1" parent="1">
          <mxGeometry x="430" y="-100" width="80" height="30" as="geometry" />
        </mxCell>
        <mxCell id="e8TIdVvF_xzTd81R42CT-23" value="Casper" style="whiteSpace=wrap;html=1;rounded=1;arcSize=50;align=center;verticalAlign=middle;strokeWidth=1;autosize=1;spacing=4;treeFolding=1;treeMoving=1;newEdgeStyle={&quot;edgeStyle&quot;:&quot;entityRelationEdgeStyle&quot;,&quot;startArrow&quot;:&quot;none&quot;,&quot;endArrow&quot;:&quot;none&quot;,&quot;segment&quot;:10,&quot;curved&quot;:1,&quot;sourcePerimeterSpacing&quot;:0,&quot;targetPerimeterSpacing&quot;:0};" vertex="1" visible="0" parent="1">
          <mxGeometry x="360" y="-50" width="80" height="30" as="geometry" />
        </mxCell>
        <mxCell id="e8TIdVvF_xzTd81R42CT-25" value="LMD GHOST" style="whiteSpace=wrap;html=1;rounded=1;arcSize=50;align=center;verticalAlign=middle;strokeWidth=1;autosize=1;spacing=4;treeFolding=1;treeMoving=1;newEdgeStyle={&quot;edgeStyle&quot;:&quot;entityRelationEdgeStyle&quot;,&quot;startArrow&quot;:&quot;none&quot;,&quot;endArrow&quot;:&quot;none&quot;,&quot;segment&quot;:10,&quot;curved&quot;:1,&quot;sourcePerimeterSpacing&quot;:0,&quot;targetPerimeterSpacing&quot;:0};" vertex="1" visible="0" parent="1">
          <mxGeometry x="480" y="-50" width="120" height="30" as="geometry" />
        </mxCell>
        <mxCell id="e8TIdVvF_xzTd81R42CT-42" value="attestations" style="whiteSpace=wrap;html=1;rounded=1;arcSize=50;align=center;verticalAlign=middle;strokeWidth=1;autosize=1;spacing=4;treeFolding=1;treeMoving=1;newEdgeStyle={&quot;edgeStyle&quot;:&quot;entityRelationEdgeStyle&quot;,&quot;startArrow&quot;:&quot;none&quot;,&quot;endArrow&quot;:&quot;none&quot;,&quot;segment&quot;:10,&quot;curved&quot;:1,&quot;sourcePerimeterSpacing&quot;:0,&quot;targetPerimeterSpacing&quot;:0};" vertex="1" parent="1">
          <mxGeometry x="30" y="125" width="110" height="30" as="geometry" />
        </mxCell>
        <mxCell id="e8TIdVvF_xzTd81R42CT-103" style="rounded=0;orthogonalLoop=1;jettySize=auto;html=1;startArrow=none;endArrow=classic;segment=10;sourcePerimeterSpacing=0;targetPerimeterSpacing=0;exitX=0.5;exitY=0;exitDx=0;exitDy=0;entryX=0.5;entryY=1;entryDx=0;entryDy=0;endFill=1;" edge="1" parent="1" source="e8TIdVvF_xzTd81R42CT-58" target="e8TIdVvF_xzTd81R42CT-67">
          <mxGeometry relative="1" as="geometry" />
        </mxCell>
        <mxCell id="e8TIdVvF_xzTd81R42CT-58" value="RANDAO" style="whiteSpace=wrap;html=1;rounded=1;arcSize=50;align=center;verticalAlign=middle;strokeWidth=1;autosize=1;spacing=4;treeFolding=1;treeMoving=1;newEdgeStyle={&quot;edgeStyle&quot;:&quot;entityRelationEdgeStyle&quot;,&quot;startArrow&quot;:&quot;none&quot;,&quot;endArrow&quot;:&quot;none&quot;,&quot;segment&quot;:10,&quot;curved&quot;:1,&quot;sourcePerimeterSpacing&quot;:0,&quot;targetPerimeterSpacing&quot;:0};" vertex="1" parent="1">
          <mxGeometry x="-130" y="220" width="100" height="30" as="geometry" />
        </mxCell>
        <mxCell id="e8TIdVvF_xzTd81R42CT-63" value="" style="rounded=0;orthogonalLoop=1;jettySize=auto;html=1;startArrow=none;endArrow=classic;segment=10;sourcePerimeterSpacing=0;targetPerimeterSpacing=0;endFill=1;" edge="1" parent="1" source="e8TIdVvF_xzTd81R42CT-60" target="e8TIdVvF_xzTd81R42CT-62">
          <mxGeometry relative="1" as="geometry" />
        </mxCell>
        <mxCell id="e8TIdVvF_xzTd81R42CT-60" value="epochs" style="whiteSpace=wrap;html=1;rounded=1;arcSize=50;align=center;verticalAlign=middle;strokeWidth=1;autosize=1;spacing=4;treeFolding=1;treeMoving=1;newEdgeStyle={&quot;edgeStyle&quot;:&quot;entityRelationEdgeStyle&quot;,&quot;startArrow&quot;:&quot;none&quot;,&quot;endArrow&quot;:&quot;none&quot;,&quot;segment&quot;:10,&quot;curved&quot;:1,&quot;sourcePerimeterSpacing&quot;:0,&quot;targetPerimeterSpacing&quot;:0};" vertex="1" parent="1">
          <mxGeometry x="180" y="290" width="80" height="30" as="geometry" />
        </mxCell>
        <mxCell id="e8TIdVvF_xzTd81R42CT-65" value="" style="rounded=0;orthogonalLoop=1;jettySize=auto;html=1;startArrow=none;endArrow=none;segment=10;sourcePerimeterSpacing=0;targetPerimeterSpacing=0;dashed=1;" edge="1" parent="1" source="e8TIdVvF_xzTd81R42CT-62" target="e8TIdVvF_xzTd81R42CT-64">
          <mxGeometry relative="1" as="geometry" />
        </mxCell>
        <mxCell id="e8TIdVvF_xzTd81R42CT-66" value="â" style="edgeLabel;html=1;align=center;verticalAlign=middle;resizable=0;points=[];fontSize=13;" vertex="1" connectable="0" parent="e8TIdVvF_xzTd81R42CT-65">
          <mxGeometry x="-0.0649" relative="1" as="geometry">
            <mxPoint as="offset" />
          </mxGeometry>
        </mxCell>
        <mxCell id="e8TIdVvF_xzTd81R42CT-96" value="" style="rounded=0;orthogonalLoop=1;jettySize=auto;html=1;startArrow=none;endArrow=none;segment=10;sourcePerimeterSpacing=0;targetPerimeterSpacing=0;" edge="1" parent="1" source="e8TIdVvF_xzTd81R42CT-62" target="e8TIdVvF_xzTd81R42CT-95">
          <mxGeometry relative="1" as="geometry" />
        </mxCell>
        <mxCell id="e8TIdVvF_xzTd81R42CT-62" value="slots" style="whiteSpace=wrap;html=1;rounded=1;arcSize=50;align=center;verticalAlign=middle;strokeWidth=1;autosize=1;spacing=4;treeFolding=1;treeMoving=1;newEdgeStyle={&quot;edgeStyle&quot;:&quot;entityRelationEdgeStyle&quot;,&quot;startArrow&quot;:&quot;none&quot;,&quot;endArrow&quot;:&quot;none&quot;,&quot;segment&quot;:10,&quot;curved&quot;:1,&quot;sourcePerimeterSpacing&quot;:0,&quot;targetPerimeterSpacing&quot;:0};" vertex="1" parent="1">
          <mxGeometry x="-5" y="290" width="70" height="30" as="geometry" />
        </mxCell>
        <mxCell id="e8TIdVvF_xzTd81R42CT-64" value="blocks" style="whiteSpace=wrap;html=1;rounded=1;arcSize=50;align=center;verticalAlign=middle;strokeWidth=1;autosize=1;spacing=4;treeFolding=1;treeMoving=1;newEdgeStyle={&quot;edgeStyle&quot;:&quot;entityRelationEdgeStyle&quot;,&quot;startArrow&quot;:&quot;none&quot;,&quot;endArrow&quot;:&quot;none&quot;,&quot;segment&quot;:10,&quot;curved&quot;:1,&quot;sourcePerimeterSpacing&quot;:0,&quot;targetPerimeterSpacing&quot;:0};" vertex="1" parent="1">
          <mxGeometry x="-10" y="360" width="80" height="30" as="geometry" />
        </mxCell>
        <mxCell id="e8TIdVvF_xzTd81R42CT-73" value="" style="rounded=0;orthogonalLoop=1;jettySize=auto;html=1;startArrow=none;endArrow=classic;segment=10;sourcePerimeterSpacing=0;targetPerimeterSpacing=0;endFill=1;" edge="1" parent="1" source="e8TIdVvF_xzTd81R42CT-67" target="e8TIdVvF_xzTd81R42CT-42">
          <mxGeometry relative="1" as="geometry" />
        </mxCell>
        <mxCell id="e8TIdVvF_xzTd81R42CT-67" value="committees" style="whiteSpace=wrap;html=1;rounded=1;arcSize=50;align=center;verticalAlign=middle;strokeWidth=1;autosize=1;spacing=4;treeFolding=1;treeMoving=1;newEdgeStyle={&quot;edgeStyle&quot;:&quot;entityRelationEdgeStyle&quot;,&quot;startArrow&quot;:&quot;none&quot;,&quot;endArrow&quot;:&quot;none&quot;,&quot;segment&quot;:10,&quot;curved&quot;:1,&quot;sourcePerimeterSpacing&quot;:0,&quot;targetPerimeterSpacing&quot;:0};" vertex="1" parent="1">
          <mxGeometry x="-130" y="130" width="110" height="30" as="geometry" />
        </mxCell>
        <mxCell id="e8TIdVvF_xzTd81R42CT-69" value="proposer" style="whiteSpace=wrap;html=1;rounded=1;arcSize=50;align=center;verticalAlign=middle;strokeWidth=1;autosize=1;spacing=4;treeFolding=1;treeMoving=1;newEdgeStyle={&quot;edgeStyle&quot;:&quot;entityRelationEdgeStyle&quot;,&quot;startArrow&quot;:&quot;none&quot;,&quot;endArrow&quot;:&quot;none&quot;,&quot;segment&quot;:10,&quot;curved&quot;:1,&quot;sourcePerimeterSpacing&quot;:0,&quot;targetPerimeterSpacing&quot;:0};" vertex="1" parent="1">
          <mxGeometry x="-250" y="130" width="90" height="30" as="geometry" />
        </mxCell>
        <mxCell id="e8TIdVvF_xzTd81R42CT-81" value="Finality" style="ellipse;whiteSpace=wrap;html=1;align=center;treeFolding=1;treeMoving=1;newEdgeStyle={&quot;edgeStyle&quot;:&quot;entityRelationEdgeStyle&quot;,&quot;startArrow&quot;:&quot;none&quot;,&quot;endArrow&quot;:&quot;none&quot;,&quot;segment&quot;:10,&quot;curved&quot;:1,&quot;sourcePerimeterSpacing&quot;:0,&quot;targetPerimeterSpacing&quot;:0};fillColor=#dae8fc;strokeColor=#6c8ebf;" vertex="1" parent="1">
          <mxGeometry x="420" y="-40" width="100" height="40" as="geometry" />
        </mxCell>
        <mxCell id="e8TIdVvF_xzTd81R42CT-102" value="" style="rounded=0;orthogonalLoop=1;jettySize=auto;html=1;startArrow=none;endArrow=none;segment=10;sourcePerimeterSpacing=0;targetPerimeterSpacing=0;" edge="1" parent="1" source="e8TIdVvF_xzTd81R42CT-87" target="e8TIdVvF_xzTd81R42CT-89">
          <mxGeometry relative="1" as="geometry" />
        </mxCell>
        <mxCell id="e8TIdVvF_xzTd81R42CT-111" style="rounded=0;orthogonalLoop=1;jettySize=auto;html=1;startArrow=none;endArrow=none;segment=10;sourcePerimeterSpacing=0;targetPerimeterSpacing=0;" edge="1" parent="1" source="e8TIdVvF_xzTd81R42CT-87" target="e8TIdVvF_xzTd81R42CT-109">
          <mxGeometry relative="1" as="geometry" />
        </mxCell>
        <mxCell id="e8TIdVvF_xzTd81R42CT-87" value="Proof of Stake" style="whiteSpace=wrap;html=1;rounded=1;arcSize=50;align=center;verticalAlign=middle;strokeWidth=1;autosize=1;spacing=4;treeFolding=1;treeMoving=1;newEdgeStyle={&quot;edgeStyle&quot;:&quot;entityRelationEdgeStyle&quot;,&quot;startArrow&quot;:&quot;none&quot;,&quot;endArrow&quot;:&quot;none&quot;,&quot;segment&quot;:10,&quot;curved&quot;:1,&quot;sourcePerimeterSpacing&quot;:0,&quot;targetPerimeterSpacing&quot;:0};" vertex="1" parent="1">
          <mxGeometry x="570" y="120" width="120" height="30" as="geometry" />
        </mxCell>
        <mxCell id="e8TIdVvF_xzTd81R42CT-88" style="rounded=0;orthogonalLoop=1;jettySize=auto;html=1;startArrow=none;endArrow=none;segment=10;sourcePerimeterSpacing=0;targetPerimeterSpacing=0;" edge="1" parent="1" source="e8TIdVvF_xzTd81R42CT-81" target="e8TIdVvF_xzTd81R42CT-87">
          <mxGeometry relative="1" as="geometry" />
        </mxCell>
        <mxCell id="e8TIdVvF_xzTd81R42CT-89" value="Security" style="ellipse;whiteSpace=wrap;html=1;align=center;treeFolding=1;treeMoving=1;newEdgeStyle={&quot;edgeStyle&quot;:&quot;entityRelationEdgeStyle&quot;,&quot;startArrow&quot;:&quot;none&quot;,&quot;endArrow&quot;:&quot;none&quot;,&quot;segment&quot;:10,&quot;curved&quot;:1,&quot;sourcePerimeterSpacing&quot;:0,&quot;targetPerimeterSpacing&quot;:0};fillColor=#dae8fc;strokeColor=#6c8ebf;" vertex="1" parent="1">
          <mxGeometry x="420" y="115" width="100" height="40" as="geometry" />
        </mxCell>
        <mxCell id="e8TIdVvF_xzTd81R42CT-91" value="rewards" style="whiteSpace=wrap;html=1;rounded=1;arcSize=50;align=center;verticalAlign=middle;strokeWidth=1;autosize=1;spacing=4;treeFolding=1;treeMoving=1;newEdgeStyle={&quot;edgeStyle&quot;:&quot;entityRelationEdgeStyle&quot;,&quot;startArrow&quot;:&quot;none&quot;,&quot;endArrow&quot;:&quot;none&quot;,&quot;segment&quot;:10,&quot;curved&quot;:1,&quot;sourcePerimeterSpacing&quot;:0,&quot;targetPerimeterSpacing&quot;:0};" vertex="1" parent="1">
          <mxGeometry x="-155" y="-140" width="90" height="30" as="geometry" />
        </mxCell>
        <mxCell id="e8TIdVvF_xzTd81R42CT-100" value="" style="rounded=0;orthogonalLoop=1;jettySize=auto;html=1;startArrow=none;endArrow=none;segment=10;sourcePerimeterSpacing=0;targetPerimeterSpacing=0;" edge="1" parent="1" source="e8TIdVvF_xzTd81R42CT-93" target="e8TIdVvF_xzTd81R42CT-99">
          <mxGeometry relative="1" as="geometry" />
        </mxCell>
        <mxCell id="e8TIdVvF_xzTd81R42CT-93" value="network" style="whiteSpace=wrap;html=1;rounded=1;arcSize=50;align=center;verticalAlign=middle;strokeWidth=1;autosize=1;spacing=4;treeFolding=1;treeMoving=1;newEdgeStyle={&quot;edgeStyle&quot;:&quot;entityRelationEdgeStyle&quot;,&quot;startArrow&quot;:&quot;none&quot;,&quot;endArrow&quot;:&quot;none&quot;,&quot;segment&quot;:10,&quot;curved&quot;:1,&quot;sourcePerimeterSpacing&quot;:0,&quot;targetPerimeterSpacing&quot;:0};" vertex="1" parent="1">
          <mxGeometry x="175" y="130" width="90" height="30" as="geometry" />
        </mxCell>
        <mxCell id="e8TIdVvF_xzTd81R42CT-98" value="" style="rounded=0;orthogonalLoop=1;jettySize=auto;html=1;startArrow=none;endArrow=none;segment=10;sourcePerimeterSpacing=0;targetPerimeterSpacing=0;" edge="1" parent="1" source="e8TIdVvF_xzTd81R42CT-95" target="e8TIdVvF_xzTd81R42CT-97">
          <mxGeometry relative="1" as="geometry" />
        </mxCell>
        <mxCell id="e8TIdVvF_xzTd81R42CT-95" value="checkpoint" style="whiteSpace=wrap;html=1;rounded=1;arcSize=50;align=center;verticalAlign=middle;strokeWidth=1;autosize=1;spacing=4;treeFolding=1;treeMoving=1;newEdgeStyle={&quot;edgeStyle&quot;:&quot;entityRelationEdgeStyle&quot;,&quot;startArrow&quot;:&quot;none&quot;,&quot;endArrow&quot;:&quot;none&quot;,&quot;segment&quot;:10,&quot;curved&quot;:1,&quot;sourcePerimeterSpacing&quot;:0,&quot;targetPerimeterSpacing&quot;:0};" vertex="1" parent="1">
          <mxGeometry x="-140" y="290" width="100" height="30" as="geometry" />
        </mxCell>
        <mxCell id="e8TIdVvF_xzTd81R42CT-97" value="1st slot of epoch" style="whiteSpace=wrap;html=1;rounded=1;arcSize=50;align=center;verticalAlign=middle;strokeWidth=1;autosize=1;spacing=4;treeFolding=1;treeMoving=1;newEdgeStyle={&quot;edgeStyle&quot;:&quot;entityRelationEdgeStyle&quot;,&quot;startArrow&quot;:&quot;none&quot;,&quot;endArrow&quot;:&quot;none&quot;,&quot;segment&quot;:10,&quot;curved&quot;:1,&quot;sourcePerimeterSpacing&quot;:0,&quot;targetPerimeterSpacing&quot;:0};" vertex="1" parent="1">
          <mxGeometry x="-155" y="360" width="130" height="30" as="geometry" />
        </mxCell>
        <mxCell id="e8TIdVvF_xzTd81R42CT-99" value="validators" style="whiteSpace=wrap;html=1;rounded=1;arcSize=50;align=center;verticalAlign=middle;strokeWidth=1;autosize=1;spacing=4;treeFolding=1;treeMoving=1;newEdgeStyle={&quot;edgeStyle&quot;:&quot;entityRelationEdgeStyle&quot;,&quot;startArrow&quot;:&quot;none&quot;,&quot;endArrow&quot;:&quot;none&quot;,&quot;segment&quot;:10,&quot;curved&quot;:1,&quot;sourcePerimeterSpacing&quot;:0,&quot;targetPerimeterSpacing&quot;:0};" vertex="1" parent="1">
          <mxGeometry x="170" y="220" width="100" height="30" as="geometry" />
        </mxCell>
        <mxCell id="e8TIdVvF_xzTd81R42CT-104" style="rounded=0;orthogonalLoop=1;jettySize=auto;html=1;startArrow=none;endArrow=classic;segment=10;sourcePerimeterSpacing=0;targetPerimeterSpacing=0;exitX=0.25;exitY=0;exitDx=0;exitDy=0;entryX=0.408;entryY=1.084;entryDx=0;entryDy=0;entryPerimeter=0;endFill=1;" edge="1" parent="1" source="e8TIdVvF_xzTd81R42CT-58" target="e8TIdVvF_xzTd81R42CT-69">
          <mxGeometry relative="1" as="geometry" />
        </mxCell>
        <mxCell id="e8TIdVvF_xzTd81R42CT-105" value="" style="rounded=0;orthogonalLoop=1;jettySize=auto;html=1;startArrow=none;endArrow=classic;segment=10;sourcePerimeterSpacing=0;targetPerimeterSpacing=0;endFill=1;" edge="1" parent="1" source="e8TIdVvF_xzTd81R42CT-99" target="e8TIdVvF_xzTd81R42CT-60">
          <mxGeometry relative="1" as="geometry">
            <mxPoint x="242" y="260" as="sourcePoint" />
            <mxPoint x="140" y="300" as="targetPoint" />
          </mxGeometry>
        </mxCell>
        <mxCell id="e8TIdVvF_xzTd81R42CT-114" value="" style="rounded=0;orthogonalLoop=1;jettySize=auto;html=1;startArrow=none;endArrow=none;segment=10;sourcePerimeterSpacing=0;targetPerimeterSpacing=0;" edge="1" parent="1" source="e8TIdVvF_xzTd81R42CT-109" target="e8TIdVvF_xzTd81R42CT-113">
          <mxGeometry relative="1" as="geometry" />
        </mxCell>
        <mxCell id="e8TIdVvF_xzTd81R42CT-109" value="Stake" style="whiteSpace=wrap;html=1;rounded=1;arcSize=50;align=center;verticalAlign=middle;strokeWidth=1;autosize=1;spacing=4;treeFolding=1;treeMoving=1;newEdgeStyle={&quot;edgeStyle&quot;:&quot;entityRelationEdgeStyle&quot;,&quot;startArrow&quot;:&quot;none&quot;,&quot;endArrow&quot;:&quot;none&quot;,&quot;segment&quot;:10,&quot;curved&quot;:1,&quot;sourcePerimeterSpacing&quot;:0,&quot;targetPerimeterSpacing&quot;:0};" vertex="1" parent="1">
          <mxGeometry x="590" y="220" width="80" height="30" as="geometry" />
        </mxCell>
        <mxCell id="e8TIdVvF_xzTd81R42CT-113" value="Slashing" style="whiteSpace=wrap;html=1;rounded=1;arcSize=50;align=center;verticalAlign=middle;strokeWidth=1;autosize=1;spacing=4;treeFolding=1;treeMoving=1;newEdgeStyle={&quot;edgeStyle&quot;:&quot;entityRelationEdgeStyle&quot;,&quot;startArrow&quot;:&quot;none&quot;,&quot;endArrow&quot;:&quot;none&quot;,&quot;segment&quot;:10,&quot;curved&quot;:1,&quot;sourcePerimeterSpacing&quot;:0,&quot;targetPerimeterSpacing&quot;:0};" vertex="1" parent="1">
          <mxGeometry x="425" y="220" width="90" height="30" as="geometry" />
        </mxCell>
      </root>
    </mxGraphModel>
  </diagram>
</mxfile>
